<svg xmlns="http://www.w3.org/2000/svg" viewBox="0 0 470 96" width="470" height="96" role="img" aria-label="Atlas AI Consulting — Workday practice">
  <style>
    .mark-solid{fill:#16191A}
    .mark-flow{stroke:#0E7490;stroke-width:3.4;fill:none;stroke-linecap:round}
    .mark-node{fill:#B8431E}
    .nm{font-family:Newsreader,Georgia,"Times New Roman",serif;font-size:42px;font-weight:600;letter-spacing:-.6px;fill:#16191A}
    .qual{font-family:"IBM Plex Mono",ui-monospace,monospace;font-size:13px;letter-spacing:2.2px;fill:#5B6360}
  </style>
  <g transform="translate(10,20) scale(1.107)">
    <g class="mark-solid">
      <path d="M4 17 25 7l21 10-21 10z"/><path d="M4 24 25 34l21-10v5L25 39 4 29z"/>
      <path d="M4 33 25 43l21-10v5L25 48 4 38z"/>
    </g>
    <g class="mark-flow">
      <path d="M48 32c9 0 11-8 20-10s10 3 16 1"/><path d="M48 38c10 0 12-7 21-9s10 4 15 2"/>
    </g>
    <circle class="mark-node" cx="70" cy="29" r="4.6"/>
    <g class="mark-solid">
      <path d="M100 3 121 13l-21 10-21-10z"/><path d="M79 16 100 26v22L79 38z"/>
      <path d="M121 16 100 26v22l21-10z" opacity=".82"/>
    </g>
  </g>
  <text class="nm" x="163" y="49">Atlas AI Consulting</text>
  <rect x="164" y="65" width="24" height="3" fill="#B8431E"/>
  <text class="qual" x="197" y="70">WORKDAY PRACTICE</text>
</svg>
